<svg xmlns="http://www.w3.org/2000/svg" width="284" height="327" viewBox="0 0 284 327">
  <path d="M 250.0 284.0 L 249.0 285.0 L 249.0 286.0 L 249.0 287.0 L 249.0 288.0 L 249.0 289.0 L 248.0 290.0 L 248.0 291.0 L 248.0 292.0 L 247.0 293.0 L 247.0 294.0 L 247.0 295.0 L 246.0 296.0 L 245.0 297.0 L 245.0 298.0 L 245.0 299.0 L 244.0 300.0 L 243.0 301.0 L 243.0 302.0 L 242.0 303.0 L 241.0 304.0 L 240.0 305.0 L 239.0 306.0 L 239.0 307.0 L 238.0 308.0 L 237.0 309.0 L 237.0 310.0 L 238.0 311.0 L 238.0 312.0 L 238.0 313.0 L 238.0 314.0 L 237.0 315.0 L 237.0 316.0 L 237.0 317.0 L 237.0 318.0 L 237.0 319.0 L 237.0 320.0 L 238.0 321.0 L 238.0 322.0 L 239.0 323.0 L 240.0 324.0 L 240.0 325.0 L 241.0 326.0 L 242.0 326.0 L 243.0 326.0 L 244.0 326.0 L 245.0 326.0 L 246.0 326.0 L 247.0 326.0 L 248.0 325.0 L 249.0 324.0 L 250.0 323.0 L 250.0 322.0 L 251.0 321.0 L 251.0 320.0 L 252.0 319.0 L 252.0 318.0 L 253.0 317.0 L 253.0 316.0 L 254.0 315.0 L 254.0 314.0 L 255.0 313.0 L 255.0 312.0 L 256.0 311.0 L 256.0 310.0 L 256.0 309.0 L 257.0 308.0 L 257.0 307.0 L 258.0 306.0 L 258.0 305.0 L 259.0 304.0 L 259.0 303.0 L 259.0 302.0 L 260.0 301.0 L 260.0 300.0 L 260.0 299.0 L 260.0 298.0 L 261.0 297.0 L 261.0 296.0 L 261.0 295.0 L 261.0 294.0 L 261.0 293.0 L 261.0 292.0 L 261.0 291.0 L 261.0 290.0 L 260.0 289.0 L 259.0 288.0 L 258.0 288.0 L 257.0 287.0 L 256.0 287.0 L 255.0 286.0 L 254.0 286.0 L 253.0 286.0 L 252.0 285.0 L 251.0 285.0 Z M 221.0 235.0 L 221.0 236.0 L 221.0 237.0 L 221.0 238.0 L 222.0 239.0 L 222.0 240.0 L 222.0 241.0 L 223.0 242.0 L 223.0 243.0 L 223.0 244.0 L 223.0 245.0 L 224.0 246.0 L 224.0 247.0 L 224.0 248.0 L 224.0 249.0 L 224.0 250.0 L 224.0 251.0 L 224.0 252.0 L 225.0 253.0 L 225.0 254.0 L 225.0 255.0 L 225.0 256.0 L 225.0 257.0 L 224.0 258.0 L 224.0 259.0 L 224.0 260.0 L 224.0 261.0 L 224.0 262.0 L 225.0 262.0 L 226.0 262.0 L 227.0 262.0 L 227.0 261.0 L 227.0 260.0 L 227.0 259.0 L 228.0 258.0 L 228.0 257.0 L 228.0 256.0 L 228.0 255.0 L 228.0 254.0 L 228.0 253.0 L 227.0 252.0 L 227.0 251.0 L 227.0 250.0 L 227.0 249.0 L 227.0 248.0 L 227.0 247.0 L 226.0 246.0 L 226.0 245.0 L 226.0 244.0 L 226.0 243.0 L 226.0 242.0 L 225.0 241.0 L 225.0 240.0 L 225.0 239.0 L 224.0 238.0 L 224.0 237.0 L 224.0 236.0 L 224.0 235.0 L 223.0 235.0 L 222.0 235.0 Z M 212.0 210.0 L 211.0 211.0 L 210.0 211.0 L 209.0 211.0 L 208.0 212.0 L 207.0 212.0 L 206.0 213.0 L 205.0 213.0 L 204.0 213.0 L 203.0 213.0 L 202.0 214.0 L 201.0 214.0 L 200.0 214.0 L 199.0 214.0 L 198.0 214.0 L 197.0 214.0 L 196.0 215.0 L 195.0 215.0 L 194.0 215.0 L 193.0 215.0 L 192.0 215.0 L 191.0 216.0 L 190.0 216.0 L 189.0 216.0 L 188.0 216.0 L 187.0 216.0 L 186.0 217.0 L 185.0 217.0 L 184.0 217.0 L 183.0 217.0 L 182.0 217.0 L 181.0 218.0 L 180.0 218.0 L 179.0 218.0 L 178.0 218.0 L 177.0 218.0 L 176.0 218.0 L 175.0 219.0 L 174.0 219.0 L 173.0 219.0 L 172.0 219.0 L 171.0 220.0 L 170.0 220.0 L 169.0 220.0 L 168.0 220.0 L 167.0 220.0 L 166.0 220.0 L 165.0 220.0 L 164.0 221.0 L 163.0 221.0 L 162.0 221.0 L 161.0 221.0 L 160.0 221.0 L 159.0 222.0 L 158.0 222.0 L 157.0 222.0 L 156.0 222.0 L 155.0 222.0 L 154.0 222.0 L 153.0 222.0 L 152.0 222.0 L 151.0 222.0 L 150.0 223.0 L 149.0 223.0 L 148.0 223.0 L 147.0 223.0 L 146.0 223.0 L 145.0 223.0 L 144.0 223.0 L 143.0 223.0 L 142.0 223.0 L 141.0 223.0 L 140.0 223.0 L 139.0 223.0 L 138.0 223.0 L 137.0 223.0 L 136.0 224.0 L 135.0 224.0 L 134.0 224.0 L 133.0 224.0 L 132.0 224.0 L 131.0 224.0 L 130.0 224.0 L 129.0 224.0 L 128.0 224.0 L 127.0 224.0 L 126.0 224.0 L 125.0 224.0 L 124.0 223.0 L 123.0 223.0 L 122.0 223.0 L 121.0 223.0 L 120.0 223.0 L 119.0 223.0 L 118.0 223.0 L 117.0 223.0 L 116.0 223.0 L 115.0 223.0 L 114.0 223.0 L 113.0 222.0 L 112.0 222.0 L 111.0 222.0 L 110.0 222.0 L 109.0 222.0 L 108.0 222.0 L 107.0 222.0 L 106.0 221.0 L 105.0 221.0 L 104.0 221.0 L 103.0 221.0 L 102.0 221.0 L 102.0 222.0 L 103.0 223.0 L 103.0 224.0 L 104.0 225.0 L 104.0 226.0 L 104.0 227.0 L 105.0 228.0 L 105.0 229.0 L 105.0 230.0 L 106.0 231.0 L 106.0 232.0 L 106.0 233.0 L 107.0 234.0 L 107.0 235.0 L 108.0 236.0 L 108.0 237.0 L 108.0 238.0 L 109.0 239.0 L 109.0 240.0 L 110.0 241.0 L 110.0 242.0 L 111.0 243.0 L 111.0 244.0 L 112.0 245.0 L 112.0 246.0 L 113.0 247.0 L 113.0 248.0 L 114.0 249.0 L 114.0 250.0 L 115.0 251.0 L 115.0 252.0 L 116.0 253.0 L 116.0 254.0 L 117.0 255.0 L 117.0 256.0 L 118.0 257.0 L 118.0 258.0 L 119.0 259.0 L 120.0 260.0 L 120.0 261.0 L 121.0 262.0 L 122.0 263.0 L 122.0 264.0 L 123.0 265.0 L 124.0 266.0 L 125.0 267.0 L 126.0 268.0 L 127.0 269.0 L 128.0 270.0 L 129.0 271.0 L 130.0 272.0 L 131.0 273.0 L 132.0 274.0 L 133.0 275.0 L 134.0 276.0 L 135.0 276.0 L 136.0 277.0 L 137.0 278.0 L 138.0 278.0 L 139.0 279.0 L 140.0 279.0 L 141.0 280.0 L 142.0 280.0 L 143.0 281.0 L 144.0 281.0 L 145.0 281.0 L 146.0 281.0 L 147.0 282.0 L 148.0 282.0 L 149.0 282.0 L 150.0 282.0 L 151.0 282.0 L 152.0 282.0 L 153.0 282.0 L 154.0 282.0 L 155.0 282.0 L 156.0 282.0 L 157.0 282.0 L 158.0 282.0 L 159.0 282.0 L 160.0 282.0 L 161.0 282.0 L 162.0 282.0 L 163.0 281.0 L 164.0 281.0 L 165.0 281.0 L 166.0 281.0 L 167.0 281.0 L 168.0 281.0 L 169.0 281.0 L 170.0 280.0 L 171.0 280.0 L 172.0 280.0 L 173.0 279.0 L 174.0 278.0 L 175.0 279.0 L 175.0 280.0 L 176.0 281.0 L 177.0 282.0 L 178.0 283.0 L 179.0 284.0 L 180.0 285.0 L 181.0 286.0 L 182.0 286.0 L 183.0 287.0 L 184.0 288.0 L 185.0 289.0 L 186.0 289.0 L 187.0 290.0 L 188.0 291.0 L 189.0 291.0 L 190.0 292.0 L 191.0 293.0 L 192.0 293.0 L 193.0 294.0 L 194.0 294.0 L 195.0 295.0 L 196.0 295.0 L 197.0 296.0 L 198.0 296.0 L 199.0 297.0 L 200.0 297.0 L 201.0 297.0 L 202.0 298.0 L 203.0 298.0 L 204.0 299.0 L 205.0 299.0 L 206.0 299.0 L 207.0 300.0 L 208.0 300.0 L 209.0 300.0 L 210.0 301.0 L 211.0 301.0 L 212.0 301.0 L 213.0 301.0 L 214.0 302.0 L 215.0 302.0 L 216.0 302.0 L 217.0 302.0 L 218.0 303.0 L 219.0 303.0 L 220.0 303.0 L 221.0 303.0 L 222.0 304.0 L 223.0 304.0 L 224.0 304.0 L 225.0 304.0 L 226.0 304.0 L 227.0 305.0 L 228.0 305.0 L 229.0 305.0 L 230.0 306.0 L 231.0 306.0 L 232.0 306.0 L 233.0 305.0 L 234.0 304.0 L 235.0 303.0 L 236.0 302.0 L 236.0 301.0 L 237.0 300.0 L 238.0 299.0 L 238.0 298.0 L 239.0 297.0 L 240.0 296.0 L 240.0 295.0 L 241.0 294.0 L 241.0 293.0 L 241.0 292.0 L 242.0 291.0 L 242.0 290.0 L 243.0 289.0 L 243.0 288.0 L 243.0 287.0 L 243.0 286.0 L 244.0 285.0 L 244.0 284.0 L 244.0 283.0 L 244.0 282.0 L 244.0 281.0 L 243.0 280.0 L 242.0 279.0 L 241.0 279.0 L 240.0 278.0 L 239.0 277.0 L 238.0 277.0 L 237.0 276.0 L 236.0 275.0 L 235.0 275.0 L 234.0 274.0 L 233.0 273.0 L 232.0 273.0 L 231.0 272.0 L 230.0 271.0 L 229.0 270.0 L 228.0 269.0 L 227.0 268.0 L 226.0 267.0 L 225.0 266.0 L 224.0 265.0 L 223.0 264.0 L 222.0 263.0 L 221.0 262.0 L 221.0 261.0 L 220.0 260.0 L 220.0 259.0 L 219.0 258.0 L 219.0 257.0 L 218.0 256.0 L 218.0 255.0 L 217.0 254.0 L 217.0 253.0 L 217.0 252.0 L 217.0 251.0 L 217.0 250.0 L 217.0 249.0 L 216.0 248.0 L 216.0 247.0 L 216.0 246.0 L 216.0 245.0 L 216.0 244.0 L 216.0 243.0 L 215.0 242.0 L 215.0 241.0 L 215.0 240.0 L 215.0 239.0 L 215.0 238.0 L 215.0 237.0 L 215.0 236.0 L 214.0 235.0 L 214.0 234.0 L 214.0 233.0 L 214.0 232.0 L 214.0 231.0 L 214.0 230.0 L 214.0 229.0 L 214.0 228.0 L 214.0 227.0 L 214.0 226.0 L 213.0 225.0 L 213.0 224.0 L 213.0 223.0 L 213.0 222.0 L 213.0 221.0 L 213.0 220.0 L 213.0 219.0 L 213.0 218.0 L 213.0 217.0 L 213.0 216.0 L 213.0 215.0 L 213.0 214.0 L 213.0 213.0 L 213.0 212.0 L 213.0 211.0 L 213.0 210.0 Z M 171.0 278.0 L 172.0 277.0 L 173.0 278.0 L 172.0 279.0 Z M 170.0 277.0 L 171.0 276.0 L 172.0 277.0 L 171.0 278.0 Z M 169.0 276.0 L 170.0 275.0 L 171.0 276.0 L 170.0 277.0 Z M 167.0 274.0 L 168.0 273.0 L 169.0 274.0 L 168.0 275.0 Z M 166.0 272.0 L 167.0 271.0 L 168.0 272.0 L 168.0 273.0 L 167.0 274.0 L 166.0 273.0 Z M 163.0 270.0 L 164.0 269.0 L 165.0 270.0 L 164.0 271.0 Z M 160.0 266.0 L 161.0 265.0 L 162.0 266.0 L 161.0 267.0 Z M 159.0 265.0 L 160.0 264.0 L 161.0 265.0 L 160.0 266.0 Z M 158.0 263.0 L 159.0 262.0 L 160.0 263.0 L 159.0 264.0 Z M 157.0 262.0 L 158.0 261.0 L 159.0 262.0 L 158.0 263.0 Z M 156.0 260.0 L 157.0 259.0 L 158.0 260.0 L 158.0 261.0 L 157.0 262.0 L 156.0 261.0 Z M 155.0 258.0 L 156.0 257.0 L 157.0 258.0 L 157.0 259.0 L 156.0 260.0 L 155.0 259.0 Z M 154.0 256.0 L 155.0 255.0 L 156.0 256.0 L 156.0 257.0 L 155.0 258.0 L 154.0 257.0 Z M 153.0 255.0 L 154.0 254.0 L 155.0 255.0 L 154.0 256.0 Z M 152.0 253.0 L 153.0 252.0 L 154.0 253.0 L 154.0 254.0 L 153.0 255.0 L 152.0 254.0 Z M 151.0 250.0 L 152.0 249.0 L 153.0 250.0 L 153.0 251.0 L 152.0 252.0 L 151.0 251.0 Z M 150.0 248.0 L 151.0 247.0 L 152.0 248.0 L 152.0 249.0 L 151.0 250.0 L 150.0 249.0 Z M 149.0 246.0 L 150.0 245.0 L 151.0 246.0 L 150.0 247.0 Z M 148.0 243.0 L 149.0 242.0 L 150.0 243.0 L 150.0 244.0 L 149.0 245.0 L 148.0 244.0 Z M 147.0 239.0 L 148.0 238.0 L 149.0 239.0 L 149.0 240.0 L 149.0 241.0 L 148.0 242.0 L 147.0 241.0 L 147.0 240.0 Z M 146.0 236.0 L 147.0 235.0 L 148.0 236.0 L 148.0 237.0 L 148.0 238.0 L 147.0 239.0 L 146.0 238.0 L 146.0 237.0 Z M 179.0 115.0 L 178.0 116.0 L 177.0 116.0 L 176.0 117.0 L 175.0 118.0 L 174.0 118.0 L 173.0 118.0 L 172.0 119.0 L 171.0 119.0 L 170.0 119.0 L 169.0 120.0 L 168.0 120.0 L 167.0 120.0 L 166.0 120.0 L 165.0 121.0 L 164.0 121.0 L 163.0 121.0 L 162.0 121.0 L 161.0 121.0 L 160.0 122.0 L 159.0 122.0 L 158.0 122.0 L 157.0 122.0 L 156.0 122.0 L 155.0 122.0 L 154.0 123.0 L 153.0 123.0 L 152.0 123.0 L 151.0 123.0 L 150.0 123.0 L 149.0 123.0 L 148.0 123.0 L 147.0 123.0 L 146.0 123.0 L 145.0 124.0 L 144.0 124.0 L 143.0 124.0 L 142.0 124.0 L 141.0 124.0 L 140.0 124.0 L 139.0 124.0 L 138.0 124.0 L 137.0 124.0 L 136.0 124.0 L 135.0 124.0 L 134.0 124.0 L 133.0 124.0 L 132.0 124.0 L 131.0 124.0 L 130.0 124.0 L 130.0 125.0 L 130.0 126.0 L 130.0 127.0 L 130.0 128.0 L 130.0 129.0 L 130.0 130.0 L 130.0 131.0 L 130.0 132.0 L 130.0 133.0 L 130.0 134.0 L 130.0 135.0 L 130.0 136.0 L 130.0 137.0 L 130.0 138.0 L 130.0 139.0 L 130.0 140.0 L 131.0 141.0 L 131.0 142.0 L 131.0 143.0 L 131.0 144.0 L 131.0 145.0 L 131.0 146.0 L 131.0 147.0 L 131.0 148.0 L 131.0 149.0 L 131.0 150.0 L 131.0 151.0 L 131.0 152.0 L 131.0 153.0 L 132.0 154.0 L 132.0 155.0 L 132.0 156.0 L 132.0 157.0 L 132.0 158.0 L 132.0 159.0 L 132.0 160.0 L 132.0 161.0 L 132.0 162.0 L 132.0 163.0 L 132.0 164.0 L 133.0 165.0 L 133.0 166.0 L 133.0 167.0 L 133.0 168.0 L 133.0 169.0 L 133.0 170.0 L 133.0 171.0 L 133.0 172.0 L 133.0 173.0 L 133.0 174.0 L 134.0 175.0 L 134.0 176.0 L 134.0 177.0 L 134.0 178.0 L 134.0 179.0 L 134.0 180.0 L 135.0 181.0 L 135.0 182.0 L 135.0 183.0 L 135.0 184.0 L 135.0 185.0 L 135.0 186.0 L 136.0 187.0 L 136.0 188.0 L 136.0 189.0 L 136.0 190.0 L 136.0 191.0 L 136.0 192.0 L 136.0 193.0 L 137.0 194.0 L 137.0 195.0 L 137.0 196.0 L 137.0 197.0 L 137.0 198.0 L 138.0 199.0 L 138.0 200.0 L 138.0 201.0 L 138.0 202.0 L 138.0 203.0 L 138.0 204.0 L 139.0 205.0 L 139.0 206.0 L 139.0 207.0 L 139.0 208.0 L 139.0 209.0 L 140.0 210.0 L 140.0 211.0 L 140.0 212.0 L 140.0 213.0 L 140.0 214.0 L 141.0 215.0 L 141.0 216.0 L 141.0 217.0 L 141.0 218.0 L 142.0 218.0 L 143.0 218.0 L 144.0 217.0 L 145.0 217.0 L 146.0 217.0 L 147.0 217.0 L 148.0 217.0 L 149.0 217.0 L 150.0 217.0 L 151.0 217.0 L 152.0 216.0 L 153.0 216.0 L 154.0 216.0 L 155.0 216.0 L 156.0 216.0 L 157.0 216.0 L 158.0 216.0 L 159.0 216.0 L 160.0 215.0 L 161.0 215.0 L 162.0 215.0 L 163.0 215.0 L 164.0 215.0 L 165.0 215.0 L 166.0 214.0 L 167.0 214.0 L 168.0 214.0 L 169.0 214.0 L 170.0 214.0 L 171.0 214.0 L 172.0 213.0 L 173.0 213.0 L 174.0 213.0 L 175.0 213.0 L 176.0 212.0 L 177.0 212.0 L 178.0 212.0 L 179.0 212.0 L 180.0 212.0 L 181.0 212.0 L 182.0 211.0 L 183.0 211.0 L 184.0 211.0 L 185.0 211.0 L 186.0 211.0 L 187.0 210.0 L 188.0 210.0 L 189.0 210.0 L 190.0 210.0 L 191.0 210.0 L 192.0 209.0 L 193.0 209.0 L 194.0 209.0 L 195.0 209.0 L 196.0 209.0 L 197.0 209.0 L 198.0 208.0 L 199.0 208.0 L 200.0 208.0 L 201.0 208.0 L 202.0 207.0 L 203.0 207.0 L 204.0 207.0 L 205.0 207.0 L 206.0 206.0 L 207.0 206.0 L 208.0 206.0 L 209.0 205.0 L 210.0 205.0 L 211.0 204.0 L 212.0 203.0 L 213.0 202.0 L 213.0 201.0 L 213.0 200.0 L 214.0 199.0 L 213.0 198.0 L 213.0 197.0 L 212.0 196.0 L 212.0 195.0 L 212.0 194.0 L 211.0 193.0 L 211.0 192.0 L 211.0 191.0 L 210.0 190.0 L 210.0 189.0 L 210.0 188.0 L 210.0 187.0 L 209.0 186.0 L 209.0 185.0 L 209.0 184.0 L 209.0 183.0 L 208.0 182.0 L 208.0 181.0 L 208.0 180.0 L 208.0 179.0 L 208.0 178.0 L 207.0 177.0 L 207.0 176.0 L 207.0 175.0 L 207.0 174.0 L 207.0 173.0 L 206.0 172.0 L 206.0 171.0 L 206.0 170.0 L 206.0 169.0 L 205.0 168.0 L 205.0 167.0 L 205.0 166.0 L 205.0 165.0 L 204.0 164.0 L 204.0 163.0 L 204.0 162.0 L 204.0 161.0 L 204.0 160.0 L 204.0 159.0 L 204.0 158.0 L 203.0 157.0 L 203.0 156.0 L 203.0 155.0 L 203.0 154.0 L 203.0 153.0 L 203.0 152.0 L 202.0 151.0 L 201.0 151.0 L 200.0 150.0 L 199.0 149.0 L 198.0 148.0 L 197.0 147.0 L 196.0 146.0 L 195.0 145.0 L 194.0 144.0 L 193.0 143.0 L 192.0 142.0 L 191.0 141.0 L 190.0 140.0 L 190.0 139.0 L 189.0 138.0 L 188.0 137.0 L 188.0 136.0 L 187.0 135.0 L 186.0 134.0 L 186.0 133.0 L 185.0 132.0 L 185.0 131.0 L 184.0 130.0 L 184.0 129.0 L 183.0 128.0 L 183.0 127.0 L 182.0 126.0 L 182.0 125.0 L 182.0 124.0 L 181.0 123.0 L 181.0 122.0 L 181.0 121.0 L 180.0 120.0 L 180.0 119.0 L 180.0 118.0 L 180.0 117.0 L 180.0 116.0 Z M 158.0 151.0 L 159.0 150.0 L 160.0 150.0 L 161.0 150.0 L 162.0 150.0 L 163.0 150.0 L 164.0 150.0 L 165.0 150.0 L 166.0 151.0 L 165.0 152.0 L 164.0 152.0 L 163.0 152.0 L 162.0 152.0 L 161.0 152.0 L 160.0 152.0 L 159.0 152.0 Z M 166.0 150.0 L 167.0 149.0 L 168.0 149.0 L 169.0 149.0 L 170.0 150.0 L 169.0 151.0 L 168.0 151.0 L 167.0 151.0 Z M 146.0 148.0 L 147.0 147.0 L 148.0 148.0 L 148.0 149.0 L 149.0 150.0 L 150.0 150.0 L 151.0 151.0 L 152.0 151.0 L 153.0 151.0 L 154.0 151.0 L 155.0 151.0 L 156.0 151.0 L 157.0 151.0 L 158.0 152.0 L 157.0 153.0 L 156.0 153.0 L 155.0 153.0 L 154.0 153.0 L 153.0 153.0 L 152.0 153.0 L 151.0 153.0 L 150.0 153.0 L 149.0 152.0 L 148.0 152.0 L 147.0 151.0 L 146.0 150.0 L 146.0 149.0 Z M 150.0 144.0 L 151.0 143.0 L 152.0 143.0 L 153.0 143.0 L 154.0 144.0 L 154.0 145.0 L 154.0 146.0 L 154.0 147.0 L 153.0 148.0 L 152.0 148.0 L 151.0 148.0 L 150.0 147.0 L 149.0 146.0 L 149.0 145.0 Z M 158.0 143.0 L 159.0 142.0 L 160.0 142.0 L 161.0 142.0 L 162.0 143.0 L 162.0 144.0 L 163.0 145.0 L 162.0 146.0 L 161.0 147.0 L 160.0 147.0 L 159.0 147.0 L 158.0 146.0 L 158.0 145.0 L 158.0 144.0 Z M 166.0 142.0 L 167.0 141.0 L 168.0 142.0 L 169.0 142.0 L 170.0 143.0 L 170.0 144.0 L 170.0 145.0 L 169.0 146.0 L 168.0 146.0 L 167.0 147.0 L 166.0 146.0 L 165.0 145.0 L 165.0 144.0 L 165.0 143.0 Z M 172.0 139.0 L 173.0 138.0 L 174.0 139.0 L 174.0 140.0 L 174.0 141.0 L 174.0 142.0 L 174.0 143.0 L 174.0 144.0 L 174.0 145.0 L 174.0 146.0 L 174.0 147.0 L 173.0 148.0 L 172.0 147.0 L 172.0 146.0 L 172.0 145.0 L 172.0 144.0 L 172.0 143.0 L 172.0 142.0 L 172.0 141.0 L 172.0 140.0 Z M 150.0 138.0 L 151.0 137.0 L 152.0 137.0 L 153.0 137.0 L 154.0 138.0 L 155.0 139.0 L 154.0 140.0 L 154.0 141.0 L 153.0 142.0 L 152.0 142.0 L 151.0 142.0 L 150.0 141.0 L 150.0 140.0 L 149.0 139.0 Z M 145.0 138.0 L 146.0 137.0 L 147.0 138.0 L 147.0 139.0 L 147.0 140.0 L 147.0 141.0 L 147.0 142.0 L 147.0 143.0 L 147.0 144.0 L 147.0 145.0 L 147.0 146.0 L 146.0 147.0 L 145.0 146.0 L 145.0 145.0 L 145.0 144.0 L 145.0 143.0 L 145.0 142.0 L 145.0 141.0 L 145.0 140.0 L 145.0 139.0 Z M 158.0 137.0 L 159.0 136.0 L 160.0 136.0 L 161.0 136.0 L 162.0 137.0 L 163.0 138.0 L 162.0 139.0 L 162.0 140.0 L 161.0 141.0 L 160.0 141.0 L 159.0 141.0 L 158.0 140.0 L 158.0 139.0 L 158.0 138.0 Z M 165.0 136.0 L 166.0 135.0 L 167.0 135.0 L 168.0 135.0 L 169.0 136.0 L 170.0 137.0 L 170.0 138.0 L 169.0 139.0 L 168.0 140.0 L 167.0 140.0 L 166.0 140.0 L 165.0 139.0 L 165.0 138.0 L 165.0 137.0 Z M 171.0 135.0 L 172.0 134.0 L 173.0 135.0 L 173.0 136.0 L 173.0 137.0 L 172.0 138.0 L 171.0 137.0 L 171.0 136.0 Z M 147.0 135.0 L 148.0 134.0 L 149.0 135.0 L 148.0 136.0 Z M 170.0 134.0 L 171.0 133.0 L 172.0 134.0 L 171.0 135.0 Z M 149.0 134.0 L 150.0 133.0 L 151.0 133.0 L 152.0 133.0 L 153.0 133.0 L 154.0 134.0 L 153.0 135.0 L 152.0 135.0 L 151.0 135.0 L 150.0 135.0 Z M 167.0 133.0 L 168.0 132.0 L 169.0 132.0 L 170.0 132.0 L 171.0 133.0 L 170.0 134.0 L 169.0 134.0 L 168.0 134.0 Z M 154.0 133.0 L 155.0 132.0 L 156.0 132.0 L 157.0 132.0 L 158.0 132.0 L 159.0 132.0 L 160.0 132.0 L 161.0 132.0 L 162.0 132.0 L 163.0 132.0 L 164.0 132.0 L 165.0 132.0 L 166.0 133.0 L 165.0 134.0 L 164.0 134.0 L 163.0 134.0 L 162.0 134.0 L 161.0 134.0 L 160.0 134.0 L 159.0 134.0 L 158.0 134.0 L 157.0 134.0 L 156.0 134.0 L 155.0 134.0 Z M 131.0 102.0 L 131.0 103.0 Z M 219.0 101.0 L 218.0 102.0 L 217.0 102.0 L 216.0 102.0 L 215.0 103.0 L 214.0 103.0 L 213.0 104.0 L 212.0 104.0 L 211.0 105.0 L 210.0 105.0 L 209.0 106.0 L 208.0 106.0 L 207.0 107.0 L 206.0 107.0 L 205.0 107.0 L 204.0 107.0 L 203.0 108.0 L 202.0 108.0 L 201.0 108.0 L 200.0 108.0 L 199.0 109.0 L 198.0 109.0 L 197.0 109.0 L 196.0 110.0 L 195.0 110.0 L 194.0 110.0 L 193.0 110.0 L 192.0 110.0 L 191.0 111.0 L 190.0 111.0 L 189.0 111.0 L 188.0 111.0 L 187.0 111.0 L 186.0 111.0 L 185.0 111.0 L 185.0 112.0 L 185.0 113.0 L 185.0 114.0 L 185.0 115.0 L 186.0 116.0 L 186.0 117.0 L 186.0 118.0 L 186.0 119.0 L 186.0 120.0 L 187.0 121.0 L 187.0 122.0 L 188.0 123.0 L 188.0 124.0 L 188.0 125.0 L 188.0 126.0 L 189.0 127.0 L 190.0 128.0 L 190.0 129.0 L 191.0 130.0 L 191.0 131.0 L 192.0 132.0 L 192.0 133.0 L 193.0 134.0 L 194.0 135.0 L 194.0 136.0 L 195.0 137.0 L 196.0 138.0 L 197.0 139.0 L 198.0 140.0 L 198.0 141.0 L 199.0 142.0 L 200.0 143.0 L 201.0 143.0 L 202.0 144.0 L 202.0 145.0 L 203.0 145.0 L 204.0 144.0 L 205.0 144.0 L 206.0 144.0 L 207.0 144.0 L 208.0 143.0 L 209.0 143.0 L 210.0 143.0 L 211.0 143.0 L 212.0 143.0 L 213.0 143.0 L 214.0 142.0 L 215.0 142.0 L 216.0 142.0 L 217.0 142.0 L 218.0 142.0 L 219.0 141.0 L 220.0 141.0 L 221.0 141.0 L 222.0 141.0 L 223.0 140.0 L 224.0 140.0 L 225.0 140.0 L 226.0 139.0 L 227.0 139.0 L 228.0 138.0 L 229.0 138.0 L 230.0 138.0 L 231.0 137.0 L 232.0 137.0 L 233.0 136.0 L 234.0 136.0 L 235.0 135.0 L 236.0 134.0 L 237.0 134.0 L 238.0 133.0 L 239.0 133.0 L 240.0 132.0 L 240.0 131.0 L 239.0 130.0 L 238.0 129.0 L 237.0 128.0 L 236.0 127.0 L 235.0 126.0 L 234.0 125.0 L 233.0 124.0 L 232.0 123.0 L 232.0 122.0 L 231.0 121.0 L 230.0 120.0 L 230.0 119.0 L 229.0 118.0 L 228.0 117.0 L 227.0 116.0 L 227.0 115.0 L 226.0 114.0 L 226.0 113.0 L 225.0 112.0 L 225.0 111.0 L 224.0 110.0 L 224.0 109.0 L 223.0 108.0 L 223.0 107.0 L 222.0 106.0 L 222.0 105.0 L 222.0 104.0 L 222.0 103.0 L 221.0 102.0 L 221.0 101.0 L 220.0 101.0 Z M 142.0 101.0 L 142.0 102.0 L 143.0 103.0 L 143.0 102.0 Z M 66.0 98.0 L 66.0 99.0 L 65.0 100.0 L 65.0 101.0 L 65.0 102.0 L 64.0 103.0 L 64.0 104.0 L 63.0 105.0 L 62.0 106.0 L 62.0 107.0 L 61.0 108.0 L 61.0 109.0 L 60.0 110.0 L 60.0 111.0 L 59.0 112.0 L 58.0 113.0 L 58.0 114.0 L 57.0 115.0 L 56.0 116.0 L 56.0 117.0 L 55.0 118.0 L 54.0 119.0 L 53.0 120.0 L 52.0 121.0 L 51.0 122.0 L 50.0 123.0 L 50.0 124.0 L 49.0 125.0 L 48.0 125.0 L 48.0 126.0 L 47.0 127.0 L 46.0 127.0 L 45.0 128.0 L 44.0 129.0 L 43.0 130.0 L 43.0 131.0 L 44.0 131.0 L 45.0 132.0 L 46.0 133.0 L 47.0 134.0 L 48.0 135.0 L 49.0 135.0 L 50.0 136.0 L 51.0 137.0 L 52.0 138.0 L 53.0 138.0 L 54.0 139.0 L 55.0 139.0 L 56.0 140.0 L 57.0 140.0 L 58.0 141.0 L 59.0 141.0 L 60.0 142.0 L 61.0 142.0 L 62.0 142.0 L 63.0 143.0 L 64.0 143.0 L 65.0 143.0 L 66.0 143.0 L 67.0 144.0 L 68.0 144.0 L 69.0 144.0 L 70.0 144.0 L 71.0 145.0 L 72.0 145.0 L 73.0 145.0 L 74.0 145.0 L 75.0 145.0 L 76.0 146.0 L 77.0 146.0 L 78.0 146.0 L 79.0 146.0 L 80.0 146.0 L 81.0 146.0 L 82.0 147.0 L 83.0 147.0 L 84.0 147.0 L 85.0 148.0 L 86.0 148.0 L 87.0 148.0 L 88.0 149.0 L 89.0 149.0 L 90.0 150.0 L 91.0 151.0 L 91.0 152.0 L 91.0 153.0 L 91.0 154.0 L 92.0 155.0 L 92.0 156.0 L 92.0 157.0 L 92.0 158.0 L 92.0 159.0 L 92.0 160.0 L 92.0 161.0 L 92.0 162.0 L 92.0 163.0 L 92.0 164.0 L 92.0 165.0 L 92.0 166.0 L 92.0 167.0 L 92.0 168.0 L 92.0 169.0 L 93.0 170.0 L 93.0 171.0 L 93.0 172.0 L 93.0 173.0 L 93.0 174.0 L 93.0 175.0 L 93.0 176.0 L 93.0 177.0 L 93.0 178.0 L 93.0 179.0 L 94.0 180.0 L 94.0 181.0 L 94.0 182.0 L 94.0 183.0 L 94.0 184.0 L 94.0 185.0 L 94.0 186.0 L 94.0 187.0 L 94.0 188.0 L 95.0 189.0 L 95.0 190.0 L 95.0 191.0 L 95.0 192.0 L 95.0 193.0 L 95.0 194.0 L 95.0 195.0 L 95.0 196.0 L 96.0 197.0 L 96.0 198.0 L 96.0 199.0 L 96.0 200.0 L 96.0 201.0 L 96.0 202.0 L 97.0 203.0 L 97.0 204.0 L 97.0 205.0 L 97.0 206.0 L 97.0 207.0 L 97.0 208.0 L 97.0 209.0 L 98.0 210.0 L 98.0 211.0 L 99.0 212.0 L 99.0 213.0 L 100.0 214.0 L 101.0 214.0 L 102.0 215.0 L 103.0 215.0 L 104.0 215.0 L 105.0 216.0 L 106.0 216.0 L 107.0 216.0 L 108.0 216.0 L 109.0 216.0 L 110.0 216.0 L 111.0 217.0 L 112.0 217.0 L 113.0 217.0 L 114.0 217.0 L 115.0 217.0 L 116.0 217.0 L 117.0 217.0 L 118.0 217.0 L 119.0 217.0 L 120.0 218.0 L 121.0 218.0 L 122.0 218.0 L 123.0 218.0 L 124.0 218.0 L 125.0 218.0 L 126.0 218.0 L 127.0 218.0 L 128.0 218.0 L 129.0 218.0 L 130.0 218.0 L 131.0 218.0 L 132.0 218.0 L 133.0 218.0 L 134.0 218.0 L 135.0 218.0 L 136.0 218.0 L 137.0 218.0 L 138.0 218.0 L 138.0 217.0 L 138.0 216.0 L 137.0 215.0 L 137.0 214.0 L 137.0 213.0 L 137.0 212.0 L 136.0 211.0 L 136.0 210.0 L 136.0 209.0 L 136.0 208.0 L 136.0 207.0 L 135.0 206.0 L 135.0 205.0 L 135.0 204.0 L 135.0 203.0 L 135.0 202.0 L 134.0 201.0 L 134.0 200.0 L 134.0 199.0 L 134.0 198.0 L 134.0 197.0 L 134.0 196.0 L 133.0 195.0 L 133.0 194.0 L 133.0 193.0 L 133.0 192.0 L 133.0 191.0 L 132.0 190.0 L 132.0 189.0 L 132.0 188.0 L 132.0 187.0 L 132.0 186.0 L 132.0 185.0 L 132.0 184.0 L 132.0 183.0 L 131.0 182.0 L 131.0 181.0 L 131.0 180.0 L 131.0 179.0 L 131.0 178.0 L 131.0 177.0 L 131.0 176.0 L 131.0 175.0 L 130.0 174.0 L 130.0 173.0 L 130.0 172.0 L 130.0 171.0 L 130.0 170.0 L 130.0 169.0 L 130.0 168.0 L 130.0 167.0 L 129.0 166.0 L 129.0 165.0 L 129.0 164.0 L 129.0 163.0 L 129.0 162.0 L 129.0 161.0 L 129.0 160.0 L 129.0 159.0 L 128.0 158.0 L 128.0 157.0 L 128.0 156.0 L 128.0 155.0 L 128.0 154.0 L 128.0 153.0 L 128.0 152.0 L 128.0 151.0 L 128.0 150.0 L 128.0 149.0 L 128.0 148.0 L 128.0 147.0 L 128.0 146.0 L 127.0 145.0 L 127.0 144.0 L 127.0 143.0 L 127.0 142.0 L 127.0 141.0 L 127.0 140.0 L 127.0 139.0 L 127.0 138.0 L 127.0 137.0 L 127.0 136.0 L 127.0 135.0 L 127.0 134.0 L 127.0 133.0 L 127.0 132.0 L 127.0 131.0 L 127.0 130.0 L 127.0 129.0 L 127.0 128.0 L 127.0 127.0 L 127.0 126.0 L 127.0 125.0 L 127.0 124.0 L 126.0 123.0 L 125.0 123.0 L 124.0 123.0 L 123.0 123.0 L 122.0 123.0 L 121.0 123.0 L 120.0 123.0 L 119.0 123.0 L 118.0 123.0 L 117.0 123.0 L 116.0 123.0 L 115.0 122.0 L 114.0 122.0 L 113.0 122.0 L 112.0 122.0 L 111.0 122.0 L 110.0 122.0 L 109.0 122.0 L 108.0 121.0 L 107.0 121.0 L 106.0 121.0 L 105.0 120.0 L 104.0 120.0 L 103.0 120.0 L 103.0 121.0 L 103.0 122.0 L 103.0 123.0 L 103.0 124.0 L 103.0 125.0 L 103.0 126.0 L 103.0 127.0 L 103.0 128.0 L 103.0 129.0 L 102.0 130.0 L 102.0 131.0 L 102.0 132.0 L 102.0 133.0 L 102.0 134.0 L 101.0 135.0 L 101.0 136.0 L 101.0 137.0 L 100.0 138.0 L 100.0 139.0 L 99.0 140.0 L 99.0 141.0 L 99.0 142.0 L 98.0 143.0 L 98.0 144.0 L 97.0 145.0 L 96.0 146.0 L 96.0 147.0 L 95.0 148.0 L 94.0 149.0 L 94.0 150.0 L 93.0 151.0 L 92.0 151.0 L 91.0 150.0 L 91.0 149.0 L 91.0 148.0 L 92.0 147.0 L 92.0 146.0 L 92.0 145.0 L 93.0 144.0 L 93.0 143.0 L 93.0 142.0 L 93.0 141.0 L 93.0 140.0 L 94.0 139.0 L 94.0 138.0 L 94.0 137.0 L 95.0 136.0 L 95.0 135.0 L 95.0 134.0 L 96.0 133.0 L 96.0 132.0 L 96.0 131.0 L 96.0 130.0 L 97.0 129.0 L 97.0 128.0 L 97.0 127.0 L 97.0 126.0 L 97.0 125.0 L 97.0 124.0 L 98.0 123.0 L 98.0 122.0 L 98.0 121.0 L 98.0 120.0 L 98.0 119.0 L 99.0 118.0 L 98.0 117.0 L 97.0 116.0 L 96.0 115.0 L 96.0 114.0 L 96.0 113.0 L 96.0 112.0 L 96.0 111.0 L 95.0 111.0 L 94.0 111.0 L 93.0 110.0 L 92.0 110.0 L 91.0 110.0 L 90.0 109.0 L 89.0 109.0 L 88.0 109.0 L 87.0 108.0 L 86.0 108.0 L 85.0 107.0 L 84.0 107.0 L 83.0 106.0 L 82.0 106.0 L 81.0 105.0 L 80.0 105.0 L 79.0 104.0 L 78.0 104.0 L 77.0 103.0 L 76.0 103.0 L 75.0 102.0 L 74.0 102.0 L 73.0 101.0 L 72.0 101.0 L 71.0 100.0 L 70.0 99.0 L 69.0 99.0 L 68.0 98.0 L 67.0 98.0 Z M 153.0 97.0 Z M 101.0 94.0 L 100.0 95.0 Z M 92.0 78.0 L 93.0 79.0 L 93.0 78.0 Z M 183.0 69.0 L 183.0 70.0 L 182.0 71.0 L 183.0 70.0 Z M 91.0 66.0 L 90.0 67.0 Z M 269.0 55.0 L 268.0 56.0 L 267.0 56.0 L 266.0 57.0 L 265.0 58.0 L 264.0 58.0 L 263.0 59.0 L 262.0 60.0 L 261.0 61.0 L 260.0 62.0 L 259.0 63.0 L 258.0 64.0 L 257.0 65.0 L 256.0 66.0 L 255.0 67.0 L 254.0 68.0 L 253.0 69.0 L 253.0 70.0 L 252.0 71.0 L 251.0 72.0 L 251.0 73.0 L 250.0 74.0 L 249.0 75.0 L 249.0 76.0 L 248.0 77.0 L 248.0 78.0 L 248.0 79.0 L 247.0 80.0 L 246.0 80.0 L 245.0 81.0 L 244.0 81.0 L 243.0 82.0 L 242.0 83.0 L 241.0 84.0 L 240.0 85.0 L 239.0 86.0 L 238.0 87.0 L 238.0 88.0 L 237.0 89.0 L 236.0 90.0 L 235.0 91.0 L 234.0 92.0 L 233.0 93.0 L 232.0 93.0 L 231.0 94.0 L 230.0 95.0 L 229.0 95.0 L 228.0 96.0 L 227.0 97.0 L 226.0 97.0 L 226.0 98.0 L 227.0 99.0 L 227.0 100.0 L 227.0 101.0 L 227.0 102.0 L 228.0 103.0 L 228.0 104.0 L 228.0 105.0 L 229.0 106.0 L 229.0 107.0 L 229.0 108.0 L 230.0 109.0 L 230.0 110.0 L 231.0 111.0 L 232.0 112.0 L 232.0 113.0 L 233.0 114.0 L 233.0 115.0 L 234.0 116.0 L 235.0 117.0 L 236.0 118.0 L 236.0 119.0 L 237.0 120.0 L 238.0 121.0 L 239.0 122.0 L 240.0 123.0 L 241.0 124.0 L 242.0 125.0 L 243.0 126.0 L 244.0 127.0 L 245.0 128.0 L 246.0 128.0 L 247.0 127.0 L 248.0 126.0 L 249.0 126.0 L 249.0 125.0 L 250.0 124.0 L 251.0 124.0 L 252.0 123.0 L 253.0 122.0 L 254.0 121.0 L 255.0 120.0 L 255.0 119.0 L 256.0 118.0 L 257.0 117.0 L 258.0 116.0 L 259.0 115.0 L 260.0 114.0 L 260.0 113.0 L 261.0 112.0 L 262.0 111.0 L 263.0 110.0 L 264.0 109.0 L 264.0 108.0 L 265.0 107.0 L 266.0 106.0 L 266.0 105.0 L 267.0 104.0 L 268.0 103.0 L 269.0 102.0 L 269.0 101.0 L 269.0 100.0 L 269.0 99.0 L 269.0 98.0 L 269.0 97.0 L 269.0 96.0 L 269.0 95.0 L 270.0 94.0 L 271.0 94.0 L 271.0 93.0 L 272.0 92.0 L 273.0 91.0 L 274.0 90.0 L 274.0 89.0 L 275.0 88.0 L 275.0 87.0 L 276.0 86.0 L 277.0 85.0 L 278.0 84.0 L 279.0 83.0 L 280.0 82.0 L 281.0 81.0 L 282.0 80.0 L 282.0 79.0 L 282.0 78.0 L 281.0 78.0 L 280.0 78.0 L 279.0 78.0 L 278.0 79.0 L 277.0 79.0 L 276.0 78.0 L 277.0 77.0 L 278.0 76.0 L 279.0 75.0 L 280.0 74.0 L 281.0 73.0 L 282.0 72.0 L 283.0 71.0 L 283.0 70.0 L 283.0 69.0 L 282.0 68.0 L 281.0 68.0 L 280.0 69.0 L 279.0 69.0 L 278.0 70.0 L 277.0 70.0 L 276.0 69.0 L 277.0 68.0 L 278.0 67.0 L 279.0 66.0 L 280.0 65.0 L 280.0 64.0 L 280.0 63.0 L 280.0 62.0 L 279.0 61.0 L 278.0 61.0 L 277.0 61.0 L 276.0 61.0 L 276.0 62.0 L 275.0 63.0 L 274.0 63.0 L 273.0 64.0 L 272.0 65.0 L 271.0 66.0 L 270.0 65.0 L 270.0 64.0 L 271.0 63.0 L 271.0 62.0 L 272.0 61.0 L 273.0 60.0 L 273.0 59.0 L 274.0 58.0 L 274.0 57.0 L 274.0 56.0 L 274.0 55.0 L 273.0 55.0 L 272.0 55.0 L 271.0 55.0 L 270.0 55.0 Z M 262.0 76.0 L 263.0 75.0 L 264.0 75.0 L 265.0 75.0 L 266.0 76.0 L 265.0 77.0 L 264.0 77.0 L 263.0 77.0 Z M 266.0 75.0 L 267.0 74.0 L 268.0 75.0 L 267.0 76.0 Z M 268.0 74.0 L 269.0 73.0 L 270.0 74.0 L 269.0 75.0 Z M 269.0 71.0 L 270.0 70.0 L 271.0 71.0 L 271.0 72.0 L 270.0 73.0 L 269.0 72.0 Z M 259.0 70.0 L 260.0 69.0 L 261.0 69.0 L 262.0 70.0 L 261.0 71.0 L 260.0 71.0 Z M 255.0 70.0 L 256.0 69.0 L 257.0 70.0 L 256.0 71.0 Z M 267.0 69.0 L 268.0 68.0 L 269.0 69.0 L 268.0 70.0 Z M 262.0 69.0 L 263.0 68.0 L 264.0 68.0 L 265.0 69.0 L 264.0 70.0 L 263.0 70.0 Z M 11.0 47.0 L 10.0 48.0 L 9.0 49.0 L 10.0 50.0 L 10.0 51.0 L 10.0 52.0 L 11.0 53.0 L 11.0 54.0 L 12.0 55.0 L 13.0 56.0 L 13.0 57.0 L 12.0 58.0 L 11.0 58.0 L 10.0 57.0 L 9.0 56.0 L 8.0 55.0 L 7.0 54.0 L 6.0 54.0 L 5.0 54.0 L 4.0 54.0 L 3.0 55.0 L 3.0 56.0 L 3.0 57.0 L 4.0 58.0 L 5.0 59.0 L 6.0 60.0 L 7.0 61.0 L 8.0 62.0 L 7.0 63.0 L 6.0 63.0 L 5.0 62.0 L 4.0 62.0 L 3.0 61.0 L 2.0 61.0 L 1.0 61.0 L 0.0 62.0 L 0.0 63.0 L 0.0 64.0 L 1.0 65.0 L 2.0 66.0 L 3.0 67.0 L 4.0 67.0 L 5.0 68.0 L 6.0 69.0 L 7.0 70.0 L 8.0 71.0 L 7.0 72.0 L 6.0 72.0 L 5.0 71.0 L 4.0 71.0 L 3.0 71.0 L 2.0 71.0 L 1.0 71.0 L 1.0 72.0 L 1.0 73.0 L 2.0 74.0 L 3.0 75.0 L 4.0 76.0 L 5.0 77.0 L 6.0 78.0 L 7.0 79.0 L 8.0 80.0 L 8.0 81.0 L 9.0 82.0 L 10.0 83.0 L 10.0 84.0 L 11.0 85.0 L 12.0 86.0 L 13.0 87.0 L 14.0 88.0 L 15.0 88.0 L 16.0 89.0 L 17.0 89.0 L 18.0 90.0 L 19.0 91.0 L 20.0 92.0 L 19.0 93.0 L 19.0 94.0 L 19.0 95.0 L 19.0 96.0 L 19.0 97.0 L 19.0 98.0 L 20.0 99.0 L 20.0 100.0 L 21.0 101.0 L 21.0 102.0 L 21.0 103.0 L 22.0 104.0 L 22.0 105.0 L 23.0 106.0 L 24.0 107.0 L 24.0 108.0 L 25.0 109.0 L 25.0 110.0 L 26.0 111.0 L 27.0 112.0 L 28.0 113.0 L 29.0 114.0 L 29.0 115.0 L 30.0 116.0 L 31.0 117.0 L 32.0 118.0 L 33.0 119.0 L 34.0 120.0 L 34.0 121.0 L 35.0 122.0 L 36.0 123.0 L 37.0 124.0 L 38.0 125.0 L 39.0 126.0 L 40.0 125.0 L 41.0 124.0 L 42.0 123.0 L 43.0 123.0 L 44.0 122.0 L 45.0 121.0 L 46.0 120.0 L 47.0 119.0 L 48.0 118.0 L 49.0 117.0 L 50.0 116.0 L 50.0 115.0 L 51.0 114.0 L 52.0 113.0 L 52.0 112.0 L 53.0 111.0 L 54.0 110.0 L 54.0 109.0 L 55.0 108.0 L 55.0 107.0 L 56.0 106.0 L 56.0 105.0 L 57.0 104.0 L 57.0 103.0 L 58.0 102.0 L 59.0 101.0 L 59.0 100.0 L 60.0 99.0 L 60.0 98.0 L 60.0 97.0 L 61.0 96.0 L 61.0 95.0 L 61.0 94.0 L 61.0 93.0 L 60.0 93.0 L 59.0 92.0 L 58.0 91.0 L 57.0 90.0 L 56.0 89.0 L 55.0 88.0 L 54.0 87.0 L 53.0 87.0 L 52.0 86.0 L 52.0 85.0 L 51.0 84.0 L 50.0 83.0 L 49.0 82.0 L 49.0 81.0 L 48.0 80.0 L 47.0 79.0 L 46.0 78.0 L 45.0 77.0 L 44.0 76.0 L 43.0 75.0 L 42.0 74.0 L 41.0 73.0 L 40.0 72.0 L 39.0 72.0 L 38.0 72.0 L 37.0 72.0 L 36.0 72.0 L 35.0 71.0 L 35.0 70.0 L 35.0 69.0 L 34.0 68.0 L 33.0 67.0 L 33.0 66.0 L 32.0 65.0 L 31.0 64.0 L 31.0 63.0 L 30.0 62.0 L 29.0 61.0 L 28.0 60.0 L 28.0 59.0 L 27.0 58.0 L 26.0 57.0 L 25.0 56.0 L 24.0 55.0 L 23.0 54.0 L 22.0 53.0 L 21.0 52.0 L 20.0 52.0 L 19.0 51.0 L 18.0 50.0 L 17.0 49.0 L 16.0 49.0 L 15.0 48.0 L 14.0 48.0 L 13.0 47.0 L 12.0 47.0 Z M 19.0 69.0 L 20.0 68.0 L 21.0 69.0 L 20.0 70.0 Z M 15.0 68.0 L 16.0 67.0 L 17.0 68.0 L 16.0 69.0 Z M 14.0 67.0 L 15.0 66.0 L 16.0 67.0 L 15.0 68.0 Z M 13.0 66.0 L 14.0 65.0 L 15.0 66.0 L 14.0 67.0 Z M 26.0 63.0 L 27.0 62.0 L 28.0 63.0 L 27.0 64.0 Z M 22.0 63.0 L 23.0 62.0 L 24.0 63.0 L 23.0 64.0 Z M 13.0 63.0 L 14.0 62.0 L 15.0 63.0 L 14.0 64.0 Z M 19.0 62.0 L 20.0 61.0 L 21.0 61.0 L 22.0 62.0 L 21.0 63.0 L 20.0 63.0 Z M 14.0 62.0 L 15.0 61.0 L 16.0 62.0 L 15.0 63.0 Z M 15.0 61.0 L 16.0 60.0 L 17.0 60.0 L 18.0 60.0 L 19.0 61.0 L 18.0 62.0 L 17.0 62.0 L 16.0 62.0 Z M 136.0 0.0 L 135.0 1.0 L 134.0 1.0 L 133.0 1.0 L 132.0 1.0 L 131.0 1.0 L 130.0 1.0 L 129.0 1.0 L 128.0 2.0 L 127.0 2.0 L 126.0 2.0 L 125.0 3.0 L 124.0 3.0 L 123.0 3.0 L 122.0 4.0 L 121.0 4.0 L 120.0 4.0 L 119.0 5.0 L 118.0 5.0 L 117.0 6.0 L 116.0 6.0 L 115.0 6.0 L 114.0 7.0 L 113.0 7.0 L 112.0 8.0 L 111.0 8.0 L 110.0 9.0 L 109.0 9.0 L 108.0 10.0 L 107.0 10.0 L 106.0 11.0 L 105.0 12.0 L 104.0 12.0 L 103.0 13.0 L 102.0 14.0 L 101.0 15.0 L 100.0 15.0 L 99.0 16.0 L 98.0 17.0 L 97.0 18.0 L 96.0 19.0 L 95.0 20.0 L 94.0 21.0 L 93.0 22.0 L 93.0 23.0 L 92.0 24.0 L 91.0 25.0 L 91.0 26.0 L 90.0 27.0 L 89.0 28.0 L 88.0 29.0 L 88.0 30.0 L 87.0 31.0 L 87.0 32.0 L 86.0 33.0 L 86.0 34.0 L 86.0 35.0 L 85.0 36.0 L 85.0 37.0 L 84.0 38.0 L 84.0 39.0 L 83.0 40.0 L 83.0 41.0 L 83.0 42.0 L 82.0 43.0 L 82.0 44.0 L 82.0 45.0 L 81.0 46.0 L 81.0 47.0 L 81.0 48.0 L 80.0 49.0 L 80.0 50.0 L 80.0 51.0 L 80.0 52.0 L 80.0 53.0 L 79.0 54.0 L 79.0 55.0 L 79.0 56.0 L 78.0 57.0 L 77.0 58.0 L 77.0 59.0 L 76.0 60.0 L 76.0 61.0 L 76.0 62.0 L 75.0 63.0 L 75.0 64.0 L 75.0 65.0 L 75.0 66.0 L 75.0 67.0 L 74.0 68.0 L 74.0 69.0 L 74.0 70.0 L 74.0 71.0 L 75.0 72.0 L 75.0 73.0 L 75.0 74.0 L 75.0 75.0 L 75.0 76.0 L 76.0 77.0 L 76.0 78.0 L 77.0 79.0 L 77.0 80.0 L 78.0 81.0 L 78.0 82.0 L 79.0 82.0 L 80.0 83.0 L 81.0 84.0 L 82.0 85.0 L 83.0 86.0 L 82.0 87.0 L 81.0 88.0 L 80.0 88.0 L 79.0 88.0 L 79.0 89.0 L 80.0 89.0 L 81.0 89.0 L 82.0 89.0 L 83.0 89.0 L 84.0 90.0 L 85.0 91.0 L 85.0 92.0 L 86.0 93.0 L 86.0 94.0 L 87.0 95.0 L 87.0 96.0 L 88.0 97.0 L 88.0 98.0 L 89.0 99.0 L 90.0 100.0 L 91.0 101.0 L 91.0 102.0 L 92.0 103.0 L 93.0 104.0 L 94.0 105.0 L 95.0 106.0 L 96.0 107.0 L 97.0 108.0 L 98.0 109.0 L 99.0 109.0 L 100.0 110.0 L 101.0 110.0 L 102.0 111.0 L 103.0 111.0 L 104.0 112.0 L 105.0 112.0 L 106.0 112.0 L 107.0 113.0 L 108.0 113.0 L 109.0 113.0 L 110.0 113.0 L 111.0 113.0 L 112.0 114.0 L 113.0 114.0 L 114.0 114.0 L 115.0 114.0 L 116.0 114.0 L 117.0 114.0 L 118.0 114.0 L 119.0 114.0 L 120.0 115.0 L 121.0 115.0 L 122.0 115.0 L 123.0 115.0 L 124.0 115.0 L 125.0 115.0 L 126.0 115.0 L 127.0 115.0 L 128.0 115.0 L 129.0 115.0 L 130.0 115.0 L 131.0 115.0 L 132.0 115.0 L 133.0 115.0 L 134.0 115.0 L 135.0 115.0 L 136.0 115.0 L 137.0 115.0 L 138.0 115.0 L 139.0 115.0 L 140.0 115.0 L 141.0 115.0 L 142.0 115.0 L 143.0 115.0 L 144.0 115.0 L 145.0 115.0 L 146.0 115.0 L 147.0 115.0 L 148.0 115.0 L 149.0 115.0 L 150.0 115.0 L 151.0 115.0 L 152.0 114.0 L 153.0 114.0 L 154.0 114.0 L 155.0 114.0 L 156.0 114.0 L 157.0 114.0 L 158.0 114.0 L 159.0 113.0 L 160.0 113.0 L 161.0 113.0 L 162.0 113.0 L 163.0 112.0 L 164.0 112.0 L 165.0 112.0 L 166.0 112.0 L 167.0 112.0 L 168.0 111.0 L 169.0 111.0 L 170.0 111.0 L 171.0 110.0 L 172.0 110.0 L 173.0 110.0 L 174.0 109.0 L 175.0 109.0 L 176.0 108.0 L 177.0 108.0 L 178.0 108.0 L 179.0 107.0 L 180.0 107.0 L 181.0 106.0 L 182.0 106.0 L 183.0 106.0 L 184.0 106.0 L 185.0 106.0 L 186.0 105.0 L 187.0 104.0 L 187.0 103.0 L 188.0 102.0 L 189.0 102.0 L 189.0 101.0 L 190.0 100.0 L 191.0 99.0 L 192.0 98.0 L 192.0 97.0 L 193.0 96.0 L 194.0 95.0 L 195.0 94.0 L 195.0 93.0 L 196.0 92.0 L 196.0 91.0 L 197.0 90.0 L 197.0 89.0 L 198.0 88.0 L 198.0 87.0 L 198.0 86.0 L 199.0 85.0 L 199.0 84.0 L 200.0 83.0 L 201.0 82.0 L 202.0 81.0 L 203.0 80.0 L 204.0 79.0 L 204.0 78.0 L 204.0 77.0 L 205.0 76.0 L 205.0 75.0 L 205.0 74.0 L 206.0 73.0 L 206.0 72.0 L 206.0 71.0 L 206.0 70.0 L 206.0 69.0 L 206.0 68.0 L 206.0 67.0 L 206.0 66.0 L 206.0 65.0 L 206.0 64.0 L 206.0 63.0 L 205.0 62.0 L 205.0 61.0 L 204.0 60.0 L 204.0 59.0 L 203.0 58.0 L 203.0 57.0 L 203.0 56.0 L 202.0 55.0 L 202.0 54.0 L 202.0 53.0 L 202.0 52.0 L 202.0 51.0 L 202.0 50.0 L 202.0 49.0 L 201.0 48.0 L 201.0 47.0 L 201.0 46.0 L 201.0 45.0 L 201.0 44.0 L 200.0 43.0 L 200.0 42.0 L 200.0 41.0 L 199.0 40.0 L 199.0 39.0 L 199.0 38.0 L 198.0 37.0 L 198.0 36.0 L 197.0 35.0 L 197.0 34.0 L 196.0 33.0 L 195.0 32.0 L 195.0 31.0 L 194.0 30.0 L 194.0 29.0 L 193.0 28.0 L 192.0 27.0 L 191.0 26.0 L 191.0 25.0 L 190.0 24.0 L 190.0 23.0 L 189.0 23.0 L 188.0 22.0 L 187.0 21.0 L 187.0 20.0 L 186.0 19.0 L 185.0 18.0 L 184.0 18.0 L 183.0 17.0 L 183.0 16.0 L 182.0 15.0 L 181.0 15.0 L 180.0 14.0 L 179.0 13.0 L 178.0 12.0 L 177.0 12.0 L 176.0 11.0 L 175.0 10.0 L 174.0 10.0 L 173.0 9.0 L 172.0 9.0 L 171.0 8.0 L 170.0 7.0 L 169.0 7.0 L 168.0 6.0 L 167.0 6.0 L 166.0 6.0 L 165.0 5.0 L 164.0 5.0 L 163.0 4.0 L 162.0 4.0 L 161.0 3.0 L 160.0 3.0 L 159.0 2.0 L 158.0 2.0 L 157.0 2.0 L 156.0 2.0 L 155.0 1.0 L 154.0 1.0 L 153.0 1.0 L 152.0 1.0 L 151.0 1.0 L 150.0 1.0 L 149.0 0.0 L 148.0 0.0 L 147.0 0.0 L 146.0 0.0 L 145.0 0.0 L 144.0 0.0 L 143.0 0.0 L 142.0 0.0 L 141.0 0.0 L 140.0 0.0 L 139.0 0.0 L 138.0 0.0 L 137.0 0.0 Z M 156.0 96.0 L 157.0 95.0 L 158.0 96.0 L 158.0 97.0 L 158.0 98.0 L 157.0 99.0 L 156.0 98.0 L 156.0 97.0 Z M 116.0 96.0 L 117.0 95.0 L 118.0 95.0 L 119.0 95.0 L 120.0 96.0 L 121.0 96.0 L 122.0 96.0 L 123.0 96.0 L 124.0 97.0 L 125.0 97.0 L 126.0 97.0 L 127.0 98.0 L 127.0 99.0 L 126.0 100.0 L 125.0 100.0 L 124.0 100.0 L 123.0 99.0 L 122.0 99.0 L 121.0 99.0 L 120.0 99.0 L 119.0 98.0 L 118.0 98.0 L 117.0 98.0 L 116.0 97.0 Z M 157.0 93.0 L 158.0 92.0 L 159.0 93.0 L 158.0 94.0 Z M 155.0 93.0 L 156.0 92.0 L 157.0 93.0 L 157.0 94.0 L 156.0 95.0 L 155.0 94.0 Z M 158.0 89.0 L 159.0 88.0 L 160.0 89.0 L 161.0 90.0 L 162.0 90.0 L 163.0 91.0 L 163.0 92.0 L 162.0 93.0 L 161.0 93.0 L 160.0 93.0 L 159.0 92.0 L 159.0 91.0 L 158.0 90.0 Z M 160.0 87.0 L 161.0 86.0 L 162.0 87.0 L 161.0 88.0 Z M 162.0 85.0 L 163.0 84.0 L 164.0 85.0 L 165.0 86.0 L 164.0 87.0 L 163.0 87.0 L 162.0 87.0 L 161.0 86.0 Z M 89.0 82.0 L 90.0 81.0 L 91.0 82.0 L 92.0 83.0 L 93.0 84.0 L 94.0 84.0 L 95.0 85.0 L 96.0 86.0 L 97.0 86.0 L 98.0 87.0 L 97.0 88.0 L 96.0 88.0 L 96.0 89.0 L 97.0 88.0 L 98.0 88.0 L 99.0 88.0 L 100.0 88.0 L 101.0 88.0 L 102.0 89.0 L 102.0 90.0 L 103.0 90.0 L 104.0 91.0 L 103.0 92.0 L 104.0 91.0 L 105.0 91.0 L 106.0 91.0 L 107.0 92.0 L 108.0 92.0 L 109.0 93.0 L 110.0 94.0 L 111.0 93.0 L 112.0 94.0 L 113.0 95.0 L 114.0 94.0 L 115.0 94.0 L 116.0 95.0 L 115.0 96.0 L 114.0 97.0 L 114.0 98.0 L 114.0 99.0 L 114.0 100.0 L 114.0 99.0 L 114.0 98.0 L 115.0 97.0 L 116.0 97.0 L 117.0 98.0 L 118.0 98.0 L 119.0 99.0 L 119.0 100.0 L 120.0 99.0 L 121.0 100.0 L 122.0 100.0 L 123.0 101.0 L 123.0 102.0 L 123.0 101.0 L 124.0 100.0 L 125.0 100.0 L 126.0 100.0 L 127.0 101.0 L 127.0 102.0 L 127.0 101.0 L 128.0 100.0 L 127.0 99.0 L 127.0 98.0 L 128.0 97.0 L 129.0 98.0 L 130.0 99.0 L 130.0 100.0 L 131.0 99.0 L 132.0 99.0 L 133.0 99.0 L 134.0 98.0 L 135.0 97.0 L 136.0 97.0 L 137.0 97.0 L 138.0 97.0 L 139.0 97.0 L 140.0 98.0 L 140.0 99.0 L 139.0 100.0 L 138.0 101.0 L 139.0 101.0 L 139.0 100.0 L 140.0 99.0 L 140.0 98.0 L 140.0 97.0 L 141.0 96.0 L 142.0 96.0 L 143.0 97.0 L 144.0 98.0 L 145.0 99.0 L 145.0 100.0 L 145.0 101.0 L 146.0 102.0 L 146.0 103.0 L 147.0 103.0 L 146.0 102.0 L 146.0 101.0 L 146.0 100.0 L 146.0 99.0 L 145.0 98.0 L 144.0 97.0 L 145.0 96.0 L 146.0 95.0 L 147.0 96.0 L 148.0 97.0 L 148.0 98.0 L 149.0 98.0 L 149.0 97.0 L 149.0 96.0 L 149.0 95.0 L 150.0 94.0 L 151.0 94.0 L 152.0 95.0 L 151.0 94.0 L 152.0 93.0 L 153.0 93.0 L 154.0 94.0 L 155.0 95.0 L 156.0 96.0 L 156.0 97.0 L 156.0 98.0 L 156.0 99.0 L 156.0 100.0 L 155.0 101.0 L 154.0 101.0 L 153.0 101.0 L 153.0 102.0 L 152.0 103.0 L 151.0 104.0 L 150.0 104.0 L 149.0 105.0 L 148.0 105.0 L 147.0 105.0 L 146.0 106.0 L 145.0 106.0 L 144.0 105.0 L 144.0 106.0 L 143.0 107.0 L 142.0 107.0 L 141.0 108.0 L 140.0 108.0 L 139.0 109.0 L 138.0 109.0 L 137.0 109.0 L 136.0 109.0 L 135.0 108.0 L 135.0 107.0 L 135.0 106.0 L 135.0 105.0 L 134.0 104.0 L 135.0 103.0 L 134.0 102.0 L 135.0 101.0 L 134.0 101.0 L 134.0 102.0 L 134.0 103.0 L 134.0 104.0 L 134.0 105.0 L 135.0 106.0 L 135.0 107.0 L 135.0 108.0 L 136.0 109.0 L 135.0 110.0 L 134.0 110.0 L 133.0 110.0 L 132.0 110.0 L 131.0 111.0 L 130.0 111.0 L 129.0 111.0 L 128.0 111.0 L 127.0 111.0 L 126.0 111.0 L 125.0 111.0 L 124.0 111.0 L 123.0 111.0 L 122.0 111.0 L 121.0 111.0 L 120.0 111.0 L 119.0 110.0 L 118.0 110.0 L 117.0 110.0 L 116.0 110.0 L 115.0 109.0 L 114.0 109.0 L 113.0 109.0 L 112.0 108.0 L 111.0 107.0 L 110.0 107.0 L 109.0 106.0 L 108.0 106.0 L 107.0 105.0 L 106.0 104.0 L 105.0 104.0 L 104.0 103.0 L 103.0 102.0 L 102.0 101.0 L 101.0 100.0 L 100.0 100.0 L 99.0 99.0 L 99.0 98.0 L 98.0 98.0 L 97.0 97.0 L 96.0 96.0 L 95.0 95.0 L 95.0 94.0 L 94.0 93.0 L 94.0 92.0 L 93.0 91.0 L 92.0 90.0 L 92.0 89.0 L 91.0 88.0 L 91.0 87.0 L 90.0 86.0 L 91.0 85.0 L 90.0 84.0 L 89.0 83.0 Z M 86.0 71.0 L 87.0 70.0 L 88.0 71.0 L 88.0 72.0 L 87.0 73.0 L 86.0 72.0 Z M 125.0 66.0 L 126.0 65.0 L 127.0 65.0 L 128.0 65.0 L 129.0 65.0 L 130.0 65.0 L 131.0 65.0 L 132.0 66.0 L 133.0 66.0 L 134.0 67.0 L 135.0 68.0 L 136.0 69.0 L 137.0 70.0 L 138.0 71.0 L 137.0 72.0 L 136.0 73.0 L 135.0 74.0 L 134.0 74.0 L 133.0 75.0 L 132.0 75.0 L 131.0 74.0 L 130.0 73.0 L 130.0 72.0 L 130.0 71.0 L 129.0 71.0 L 128.0 70.0 L 127.0 70.0 L 126.0 71.0 L 125.0 71.0 L 124.0 71.0 L 123.0 70.0 L 122.0 69.0 L 122.0 68.0 L 123.0 67.0 L 124.0 66.0 Z M 86.0 62.0 L 87.0 61.0 L 88.0 61.0 L 89.0 61.0 L 90.0 62.0 L 89.0 63.0 L 88.0 63.0 L 87.0 63.0 Z M 85.0 59.0 L 86.0 58.0 L 87.0 59.0 L 86.0 60.0 Z M 118.0 58.0 L 119.0 57.0 L 120.0 57.0 L 121.0 57.0 L 122.0 57.0 L 123.0 57.0 L 124.0 57.0 L 125.0 58.0 L 126.0 58.0 L 127.0 58.0 L 128.0 58.0 L 129.0 58.0 L 130.0 59.0 L 131.0 59.0 L 132.0 59.0 L 133.0 59.0 L 134.0 59.0 L 135.0 59.0 L 136.0 59.0 L 137.0 59.0 L 138.0 59.0 L 139.0 59.0 L 140.0 59.0 L 141.0 60.0 L 142.0 61.0 L 143.0 61.0 L 144.0 62.0 L 144.0 63.0 L 145.0 64.0 L 146.0 65.0 L 147.0 66.0 L 147.0 67.0 L 148.0 68.0 L 148.0 69.0 L 148.0 70.0 L 149.0 71.0 L 149.0 72.0 L 149.0 73.0 L 149.0 74.0 L 149.0 75.0 L 149.0 76.0 L 149.0 77.0 L 149.0 78.0 L 149.0 79.0 L 148.0 80.0 L 148.0 81.0 L 148.0 82.0 L 147.0 83.0 L 146.0 84.0 L 146.0 85.0 L 145.0 86.0 L 144.0 87.0 L 143.0 88.0 L 142.0 89.0 L 141.0 90.0 L 140.0 90.0 L 139.0 91.0 L 138.0 91.0 L 137.0 92.0 L 136.0 92.0 L 137.0 92.0 L 138.0 91.0 L 139.0 91.0 L 140.0 91.0 L 141.0 90.0 L 142.0 90.0 L 143.0 89.0 L 144.0 89.0 L 145.0 88.0 L 146.0 88.0 L 147.0 87.0 L 148.0 86.0 L 149.0 86.0 L 149.0 85.0 L 150.0 84.0 L 151.0 84.0 L 152.0 83.0 L 152.0 82.0 L 153.0 81.0 L 154.0 80.0 L 153.0 81.0 L 152.0 81.0 L 151.0 80.0 L 152.0 79.0 L 152.0 78.0 L 152.0 77.0 L 152.0 76.0 L 152.0 75.0 L 153.0 74.0 L 154.0 75.0 L 155.0 76.0 L 156.0 76.0 L 157.0 77.0 L 157.0 78.0 L 158.0 78.0 L 159.0 78.0 L 160.0 79.0 L 161.0 80.0 L 162.0 81.0 L 161.0 82.0 L 161.0 83.0 L 160.0 84.0 L 159.0 85.0 L 158.0 86.0 L 158.0 87.0 L 157.0 88.0 L 156.0 88.0 L 156.0 89.0 L 155.0 90.0 L 154.0 91.0 L 153.0 92.0 L 152.0 92.0 L 151.0 92.0 L 150.0 92.0 L 150.0 93.0 L 149.0 94.0 L 148.0 94.0 L 147.0 94.0 L 146.0 95.0 L 145.0 95.0 L 144.0 95.0 L 143.0 96.0 L 142.0 95.0 L 141.0 95.0 L 140.0 96.0 L 139.0 96.0 L 138.0 96.0 L 137.0 95.0 L 137.0 96.0 L 136.0 97.0 L 135.0 97.0 L 134.0 97.0 L 133.0 97.0 L 132.0 97.0 L 131.0 97.0 L 130.0 97.0 L 129.0 97.0 L 128.0 97.0 L 127.0 97.0 L 126.0 96.0 L 125.0 96.0 L 124.0 96.0 L 123.0 95.0 L 122.0 96.0 L 121.0 96.0 L 120.0 95.0 L 119.0 94.0 L 118.0 94.0 L 117.0 94.0 L 116.0 93.0 L 115.0 93.0 L 114.0 93.0 L 113.0 92.0 L 112.0 92.0 L 111.0 92.0 L 110.0 92.0 L 109.0 92.0 L 108.0 91.0 L 107.0 90.0 L 106.0 90.0 L 105.0 90.0 L 104.0 89.0 L 103.0 89.0 L 102.0 88.0 L 101.0 87.0 L 100.0 87.0 L 99.0 87.0 L 98.0 86.0 L 98.0 85.0 L 97.0 85.0 L 96.0 85.0 L 95.0 84.0 L 95.0 83.0 L 94.0 83.0 L 93.0 83.0 L 92.0 82.0 L 91.0 81.0 L 90.0 80.0 L 89.0 80.0 L 88.0 79.0 L 88.0 78.0 L 88.0 77.0 L 88.0 76.0 L 87.0 75.0 L 87.0 74.0 L 88.0 73.0 L 88.0 72.0 L 89.0 71.0 L 88.0 70.0 L 88.0 69.0 L 88.0 68.0 L 88.0 69.0 L 87.0 70.0 L 86.0 69.0 L 86.0 68.0 L 86.0 67.0 L 87.0 66.0 L 88.0 65.0 L 89.0 64.0 L 90.0 63.0 L 91.0 63.0 L 92.0 62.0 L 93.0 62.0 L 94.0 62.0 L 94.0 61.0 L 95.0 60.0 L 96.0 61.0 L 97.0 62.0 L 98.0 63.0 L 98.0 64.0 L 97.0 65.0 L 97.0 66.0 L 97.0 67.0 L 97.0 68.0 L 97.0 69.0 L 97.0 70.0 L 98.0 71.0 L 98.0 72.0 L 98.0 73.0 L 98.0 74.0 L 98.0 75.0 L 99.0 76.0 L 99.0 77.0 L 99.0 78.0 L 100.0 79.0 L 101.0 80.0 L 101.0 81.0 L 102.0 82.0 L 102.0 83.0 L 103.0 84.0 L 104.0 85.0 L 105.0 86.0 L 106.0 86.0 L 107.0 86.0 L 108.0 87.0 L 109.0 87.0 L 110.0 88.0 L 111.0 88.0 L 112.0 89.0 L 113.0 89.0 L 114.0 90.0 L 115.0 90.0 L 116.0 90.0 L 117.0 90.0 L 118.0 91.0 L 119.0 91.0 L 120.0 91.0 L 121.0 91.0 L 122.0 91.0 L 123.0 91.0 L 124.0 91.0 L 125.0 91.0 L 126.0 91.0 L 127.0 91.0 L 128.0 90.0 L 129.0 90.0 L 130.0 90.0 L 131.0 90.0 L 132.0 89.0 L 133.0 89.0 L 134.0 88.0 L 135.0 88.0 L 136.0 87.0 L 137.0 86.0 L 138.0 85.0 L 139.0 84.0 L 139.0 83.0 L 140.0 82.0 L 141.0 81.0 L 142.0 81.0 L 141.0 80.0 L 141.0 79.0 L 141.0 78.0 L 142.0 77.0 L 142.0 76.0 L 142.0 75.0 L 142.0 74.0 L 142.0 73.0 L 141.0 72.0 L 141.0 71.0 L 141.0 70.0 L 140.0 69.0 L 140.0 68.0 L 139.0 67.0 L 138.0 66.0 L 137.0 65.0 L 136.0 64.0 L 135.0 63.0 L 134.0 63.0 L 133.0 62.0 L 132.0 62.0 L 131.0 62.0 L 130.0 62.0 L 129.0 62.0 L 128.0 62.0 L 127.0 62.0 L 126.0 62.0 L 125.0 62.0 L 124.0 62.0 L 123.0 63.0 L 122.0 63.0 L 121.0 64.0 L 120.0 65.0 L 120.0 66.0 L 119.0 67.0 L 119.0 68.0 L 119.0 69.0 L 119.0 70.0 L 119.0 71.0 L 120.0 72.0 L 121.0 73.0 L 122.0 73.0 L 123.0 73.0 L 124.0 73.0 L 125.0 73.0 L 126.0 73.0 L 127.0 74.0 L 127.0 75.0 L 126.0 76.0 L 125.0 77.0 L 124.0 78.0 L 123.0 78.0 L 122.0 79.0 L 121.0 78.0 L 120.0 78.0 L 119.0 77.0 L 119.0 76.0 L 118.0 75.0 L 117.0 74.0 L 116.0 74.0 L 115.0 73.0 L 114.0 73.0 L 113.0 72.0 L 112.0 71.0 L 111.0 70.0 L 111.0 69.0 L 111.0 68.0 L 111.0 67.0 L 111.0 66.0 L 112.0 65.0 L 112.0 64.0 L 112.0 63.0 L 113.0 62.0 L 114.0 61.0 L 115.0 60.0 L 116.0 59.0 L 117.0 58.0 Z M 91.0 58.0 L 92.0 57.0 L 93.0 58.0 L 93.0 59.0 L 92.0 60.0 L 91.0 60.0 L 90.0 59.0 Z M 88.0 56.0 L 89.0 55.0 L 90.0 55.0 L 91.0 56.0 L 90.0 57.0 L 89.0 58.0 L 88.0 59.0 L 87.0 58.0 L 87.0 57.0 Z M 111.0 54.0 L 112.0 53.0 L 113.0 53.0 L 114.0 53.0 L 115.0 53.0 L 116.0 53.0 L 117.0 54.0 L 116.0 55.0 L 115.0 56.0 L 114.0 56.0 L 113.0 57.0 L 112.0 58.0 L 111.0 59.0 L 110.0 60.0 L 110.0 61.0 L 109.0 62.0 L 109.0 63.0 L 108.0 64.0 L 108.0 65.0 L 108.0 66.0 L 108.0 67.0 L 108.0 68.0 L 108.0 69.0 L 108.0 70.0 L 108.0 71.0 L 108.0 72.0 L 109.0 73.0 L 109.0 74.0 L 110.0 75.0 L 110.0 76.0 L 111.0 77.0 L 112.0 78.0 L 113.0 79.0 L 113.0 80.0 L 114.0 81.0 L 115.0 81.0 L 116.0 81.0 L 117.0 81.0 L 118.0 81.0 L 119.0 81.0 L 120.0 82.0 L 121.0 82.0 L 122.0 82.0 L 123.0 82.0 L 124.0 81.0 L 125.0 81.0 L 126.0 81.0 L 127.0 80.0 L 128.0 79.0 L 129.0 78.0 L 130.0 77.0 L 131.0 77.0 L 132.0 77.0 L 133.0 77.0 L 134.0 76.0 L 135.0 76.0 L 136.0 75.0 L 137.0 75.0 L 138.0 76.0 L 138.0 77.0 L 138.0 78.0 L 137.0 79.0 L 137.0 80.0 L 136.0 81.0 L 136.0 82.0 L 135.0 83.0 L 134.0 83.0 L 133.0 84.0 L 132.0 85.0 L 131.0 86.0 L 130.0 87.0 L 129.0 87.0 L 128.0 87.0 L 127.0 88.0 L 126.0 88.0 L 125.0 88.0 L 124.0 88.0 L 123.0 88.0 L 122.0 88.0 L 121.0 88.0 L 120.0 88.0 L 119.0 88.0 L 118.0 87.0 L 117.0 87.0 L 116.0 87.0 L 115.0 87.0 L 114.0 86.0 L 113.0 86.0 L 112.0 86.0 L 111.0 85.0 L 110.0 84.0 L 109.0 84.0 L 108.0 83.0 L 107.0 82.0 L 106.0 81.0 L 105.0 80.0 L 105.0 79.0 L 105.0 78.0 L 105.0 77.0 L 105.0 76.0 L 105.0 75.0 L 105.0 74.0 L 105.0 73.0 L 105.0 72.0 L 105.0 71.0 L 105.0 70.0 L 105.0 69.0 L 105.0 68.0 L 105.0 67.0 L 105.0 66.0 L 105.0 65.0 L 105.0 64.0 L 105.0 63.0 L 106.0 62.0 L 106.0 61.0 L 106.0 60.0 L 106.0 59.0 L 107.0 58.0 L 107.0 57.0 L 108.0 56.0 L 109.0 55.0 L 110.0 54.0 Z M 92.0 53.0 L 93.0 52.0 L 94.0 53.0 L 94.0 54.0 L 93.0 55.0 L 92.0 54.0 Z M 183.0 52.0 L 184.0 51.0 L 185.0 51.0 L 186.0 51.0 L 187.0 51.0 L 188.0 51.0 L 189.0 51.0 L 190.0 51.0 L 191.0 51.0 L 192.0 51.0 L 193.0 51.0 L 194.0 52.0 L 195.0 52.0 L 196.0 53.0 L 195.0 54.0 L 194.0 55.0 L 193.0 55.0 L 192.0 56.0 L 192.0 57.0 L 191.0 58.0 L 190.0 59.0 L 190.0 60.0 L 190.0 61.0 L 189.0 62.0 L 189.0 63.0 L 189.0 64.0 L 189.0 65.0 L 189.0 66.0 L 188.0 67.0 L 188.0 68.0 L 188.0 69.0 L 188.0 70.0 L 189.0 71.0 L 189.0 72.0 L 189.0 73.0 L 189.0 74.0 L 189.0 75.0 L 190.0 76.0 L 190.0 77.0 L 190.0 78.0 L 191.0 79.0 L 192.0 80.0 L 192.0 81.0 L 193.0 82.0 L 194.0 82.0 L 195.0 83.0 L 196.0 84.0 L 195.0 85.0 L 194.0 85.0 L 193.0 86.0 L 192.0 86.0 L 191.0 86.0 L 190.0 86.0 L 189.0 86.0 L 188.0 86.0 L 187.0 86.0 L 186.0 86.0 L 185.0 86.0 L 184.0 86.0 L 183.0 85.0 L 182.0 85.0 L 181.0 84.0 L 180.0 83.0 L 179.0 82.0 L 179.0 81.0 L 179.0 80.0 L 179.0 79.0 L 180.0 78.0 L 181.0 78.0 L 180.0 78.0 L 179.0 79.0 L 178.0 79.0 L 177.0 78.0 L 178.0 77.0 L 178.0 76.0 L 179.0 75.0 L 180.0 75.0 L 180.0 74.0 L 181.0 73.0 L 180.0 74.0 L 179.0 75.0 L 178.0 75.0 L 177.0 75.0 L 176.0 74.0 L 176.0 73.0 L 177.0 72.0 L 178.0 71.0 L 178.0 70.0 L 179.0 69.0 L 178.0 70.0 L 177.0 71.0 L 176.0 70.0 L 176.0 69.0 L 176.0 68.0 L 176.0 67.0 L 176.0 66.0 L 176.0 65.0 L 176.0 64.0 L 176.0 63.0 L 177.0 62.0 L 177.0 61.0 L 177.0 60.0 L 178.0 59.0 L 178.0 58.0 L 178.0 57.0 L 179.0 56.0 L 179.0 55.0 L 180.0 54.0 L 181.0 53.0 L 182.0 52.0 Z M 88.0 49.0 L 89.0 48.0 L 90.0 49.0 L 90.0 50.0 L 90.0 51.0 L 90.0 52.0 L 90.0 53.0 L 90.0 54.0 L 89.0 55.0 L 88.0 56.0 L 87.0 56.0 L 86.0 55.0 L 86.0 54.0 L 86.0 53.0 L 87.0 52.0 L 87.0 51.0 L 88.0 50.0 Z M 95.0 43.0 L 96.0 42.0 L 97.0 43.0 L 97.0 44.0 L 97.0 45.0 L 96.0 46.0 L 96.0 47.0 L 95.0 48.0 L 94.0 47.0 L 94.0 48.0 L 95.0 49.0 L 95.0 50.0 L 94.0 51.0 L 93.0 52.0 L 92.0 53.0 L 91.0 53.0 L 90.0 52.0 L 90.0 51.0 L 90.0 50.0 L 90.0 49.0 L 90.0 48.0 L 90.0 47.0 L 91.0 46.0 L 92.0 45.0 L 93.0 44.0 L 94.0 43.0 Z M 97.0 42.0 L 98.0 41.0 L 99.0 42.0 L 98.0 43.0 Z " fill="#000000" fill-rule="evenodd" />
</svg>